<svg width="22" height="23" viewBox="0 0 22 23" fill="none" xmlns="http://www.w3.org/2000/svg">
<path d="M4.03495 0.535767L5.71289 0.13403C6.63207 -0.0866114 7.62071 -0.033497 8.49431 0.283462C9.36792 0.600422 10.0668 1.15957 10.4606 1.85658L11.7575 4.15254C12.096 4.75206 12.1903 5.4209 12.0271 6.06524C11.8639 6.70957 11.4513 7.29706 10.8473 7.74528L8.69924 9.33963C8.63645 9.38621 8.59667 9.44914 8.58709 9.51704C8.52383 9.97143 8.9106 10.8562 9.80205 12.0866C10.4505 12.9804 11.0386 13.6088 11.5375 13.9602C11.8855 14.2063 12.0767 14.2589 12.1586 14.2406L15.0487 13.5367C15.8379 13.3445 16.6829 13.3538 17.4652 13.5631C18.2475 13.7725 18.9279 14.1715 19.411 14.7041L21.2529 16.7369C21.813 17.355 22.0723 18.1139 21.9826 18.8728C21.893 19.6316 21.4605 20.3387 20.7654 20.8629L19.4915 21.8244C18.8154 22.334 17.985 22.6956 17.0812 22.874C16.1774 23.0523 15.2309 23.0412 14.3341 22.8419C10.3743 21.9617 6.82432 19.3018 3.64386 14.917C0.459087 10.5265 -0.658101 6.74494 0.37138 3.57111C0.603121 2.85729 1.06195 2.20303 1.70363 1.67139C2.34531 1.13974 3.14821 0.748634 4.03495 0.535767ZM4.65753 2.18048C4.12564 2.30805 3.64397 2.54249 3.25893 2.86122C2.87388 3.17996 2.59843 3.57225 2.4591 4.00032C1.59353 6.6694 2.58419 10.0218 5.51159 14.0586C8.43468 18.0897 11.5821 20.4475 14.9149 21.1891C15.4529 21.3084 16.0205 21.3148 16.5624 21.2077C17.1044 21.1006 17.6023 20.8836 18.0077 20.578L19.2831 19.6165C19.5991 19.3782 19.7958 19.0567 19.8365 18.7117C19.8772 18.3667 19.7592 18.0216 19.5045 17.7406L17.6641 15.709C17.4445 15.4666 17.135 15.2851 16.7791 15.1898C16.4233 15.0946 16.0388 15.0904 15.6799 15.178L12.7827 15.8842C11.1004 16.2825 9.57344 15.2054 7.93432 12.945C6.83007 11.4227 6.31534 10.2438 6.4433 9.32704C6.51088 8.85091 6.78838 8.4114 7.22835 8.08406L9.37646 6.48971C9.65111 6.286 9.83874 6.01893 9.91301 5.72601C9.98728 5.43309 9.94445 5.129 9.79055 4.85644L8.49364 2.56047C8.31465 2.2439 7.99718 1.98993 7.60038 1.8459C7.20358 1.70186 6.75452 1.67759 6.3369 1.7776L4.65753 2.18048Z" fill="black"/>
</svg>
