<svg width="23" height="23" viewBox="0 0 23 23" fill="none" xmlns="http://www.w3.org/2000/svg">
<path d="M4.92047 13.8987L4.14765 16.8874L1.32298 16.9493C0.478821 15.3274 0 13.4716 0 11.4996C0 9.59259 0.447686 7.79429 1.24124 6.21085H1.24185L3.75659 6.68846L4.8582 9.27791C4.62764 9.97424 4.50197 10.7217 4.50197 11.4996C4.50206 12.3437 4.64967 13.1525 4.92047 13.8987Z" fill="#FBBB00"/>
<path d="M22.0083 9.35164C22.1358 10.0473 22.2023 10.7657 22.2023 11.5C22.2023 12.3233 22.1187 13.1264 21.9595 13.9011C21.4191 16.5372 20.0071 18.8391 18.051 20.468L18.0504 20.4674L14.8829 20.2999L14.4346 17.4009C15.7326 16.6124 16.747 15.3783 17.2813 13.9011H11.3452V9.35164H17.3679H22.0083Z" fill="#518EF8"/>
<path d="M18.0503 20.4675L18.0509 20.4681C16.1485 22.0522 13.7318 23 11.1011 23C6.87355 23 3.198 20.5522 1.323 16.9499L4.92049 13.8993C5.85797 16.4912 8.27155 18.3363 11.1011 18.3363C12.3173 18.3363 13.4568 17.9957 14.4345 17.4011L18.0503 20.4675Z" fill="#28B446"/>
<path d="M18.1869 2.64749L14.5906 5.69748C13.5787 5.04226 12.3825 4.66375 11.1011 4.66375C8.20745 4.66375 5.74873 6.59344 4.85822 9.27827L1.24182 6.21121H1.24121C3.08876 2.52113 6.81066 0 11.1011 0C13.7946 0 16.2643 0.993933 18.1869 2.64749Z" fill="#F14336"/>
</svg>
